<?xml version="1.0" encoding="iso-8859-1"?>
<!-- Generator: Adobe Illustrator 18.1.1, SVG Export Plug-In . SVG Version: 6.00 Build 0)  -->
<svg version="1.1" id="Capa_1" xmlns="http://www.w3.org/2000/svg" xmlns:xlink="http://www.w3.org/1999/xlink" x="0px" y="0px"
	 viewBox="0 0 53.251 53.251" style="enable-background:new 0 0 53.251 53.251;" xml:space="preserve">
<g>
	<path style="fill:#010002;" d="M44.131,6.575V6.573C39.279,2.335,33.063,0,26.625,0C19.774,0,13.264,2.603,8.292,7.326
		C2.944,12.408,0,19.262,0,26.625c0,7.385,2.959,14.253,8.334,19.338c4.966,4.699,11.461,7.287,18.291,7.287
		c0.006,0,0.012,0.001,0.02,0c0.002,0,0.004,0,0.005,0c7.251-0.007,14.028-2.881,19.085-8.095c4.846-4.997,7.516-11.578,7.516-18.53
		C53.25,18.946,49.927,11.638,44.131,6.575z M2,26.625c0-6.528,2.503-12.623,7.067-17.257c0.067,0.053,0.138,0.103,0.206,0.155
		c0.156,0.122,0.309,0.249,0.461,0.376c0.179,0.148,0.356,0.298,0.529,0.452c0.148,0.13,0.293,0.264,0.437,0.398
		c0.169,0.157,0.336,0.317,0.499,0.48c0.14,0.139,0.276,0.279,0.411,0.422c0.159,0.167,0.315,0.336,0.468,0.508
		c0.13,0.146,0.258,0.293,0.384,0.441c0.149,0.177,0.294,0.354,0.438,0.536c0.12,0.151,0.239,0.304,0.354,0.459
		c0.139,0.184,0.273,0.371,0.405,0.56c0.11,0.158,0.222,0.317,0.327,0.478c0.128,0.192,0.25,0.387,0.371,0.582
		c0.102,0.164,0.203,0.328,0.3,0.495c0.116,0.199,0.226,0.401,0.335,0.604c0.092,0.169,0.184,0.338,0.271,0.509
		c0.104,0.206,0.203,0.416,0.301,0.625c0.081,0.173,0.163,0.346,0.239,0.521c0.094,0.213,0.18,0.43,0.266,0.646
		c0.07,0.177,0.143,0.352,0.208,0.529c0.081,0.221,0.155,0.445,0.229,0.669c0.06,0.178,0.121,0.354,0.176,0.533
		c0.069,0.229,0.13,0.462,0.192,0.693c0.048,0.178,0.099,0.354,0.142,0.533c0.059,0.239,0.105,0.48,0.155,0.722
		c0.036,0.176,0.077,0.35,0.108,0.526c0.046,0.254,0.08,0.511,0.117,0.768c0.023,0.166,0.053,0.33,0.073,0.497
		c0.034,0.283,0.056,0.568,0.078,0.854c0.011,0.143,0.028,0.285,0.037,0.428c0.026,0.429,0.04,0.859,0.04,1.292
		c0,0.432-0.014,0.861-0.04,1.29c-0.008,0.139-0.025,0.277-0.036,0.417c-0.023,0.287-0.045,0.574-0.078,0.859
		c-0.021,0.169-0.05,0.336-0.074,0.505c-0.036,0.252-0.07,0.506-0.115,0.756c-0.032,0.18-0.073,0.357-0.11,0.537
		c-0.049,0.236-0.095,0.473-0.151,0.707c-0.045,0.184-0.097,0.365-0.146,0.547c-0.062,0.227-0.12,0.453-0.188,0.677
		c-0.056,0.184-0.119,0.364-0.179,0.546c-0.073,0.219-0.145,0.438-0.225,0.654c-0.066,0.182-0.141,0.359-0.212,0.539
		c-0.084,0.212-0.168,0.424-0.259,0.633c-0.078,0.18-0.162,0.355-0.244,0.533c-0.096,0.204-0.191,0.408-0.293,0.609
		c-0.089,0.176-0.183,0.348-0.276,0.521c-0.106,0.197-0.214,0.395-0.327,0.589c-0.099,0.171-0.203,0.34-0.307,0.509
		c-0.117,0.189-0.235,0.378-0.357,0.563c-0.11,0.167-0.225,0.332-0.34,0.496c-0.127,0.182-0.256,0.362-0.389,0.54
		c-0.12,0.16-0.242,0.318-0.367,0.476c-0.138,0.175-0.278,0.349-0.422,0.519c-0.129,0.154-0.261,0.306-0.395,0.456
		c-0.148,0.167-0.299,0.331-0.453,0.493c-0.139,0.146-0.279,0.292-0.423,0.436c-0.157,0.157-0.317,0.312-0.479,0.465
		c-0.149,0.14-0.299,0.278-0.452,0.414c-0.167,0.148-0.337,0.293-0.509,0.436C9.62,43.513,9.462,43.645,9.3,43.772
		c-0.064,0.051-0.132,0.099-0.197,0.149C4.516,39.281,2,33.173,2,26.625z M25.625,51.229c-5.553-0.223-10.818-2.299-15.033-5.922
		c0.028-0.022,0.054-0.047,0.082-0.069c0.146-0.116,0.284-0.239,0.427-0.358c0.214-0.179,0.429-0.357,0.635-0.544
		c0.146-0.131,0.284-0.267,0.427-0.401c0.194-0.184,0.389-0.367,0.576-0.558c0.141-0.142,0.275-0.288,0.411-0.433
		c0.18-0.191,0.358-0.383,0.532-0.579c0.133-0.151,0.261-0.307,0.39-0.461c0.165-0.198,0.33-0.396,0.488-0.6
		c0.126-0.161,0.247-0.324,0.368-0.487c0.152-0.205,0.302-0.411,0.447-0.62c0.116-0.169,0.229-0.339,0.341-0.51
		c0.14-0.212,0.275-0.425,0.407-0.642c0.107-0.175,0.211-0.351,0.313-0.527c0.126-0.22,0.249-0.441,0.368-0.664
		c0.097-0.181,0.191-0.361,0.283-0.545c0.113-0.226,0.223-0.454,0.328-0.684c0.086-0.186,0.172-0.371,0.252-0.559
		c0.102-0.233,0.195-0.469,0.289-0.705c0.075-0.189,0.15-0.379,0.221-0.57c0.087-0.239,0.168-0.482,0.247-0.725
		c0.063-0.192,0.128-0.385,0.187-0.578c0.075-0.249,0.142-0.5,0.209-0.751c0.051-0.192,0.104-0.384,0.15-0.577
		c0.063-0.259,0.115-0.521,0.168-0.781c0.039-0.189,0.081-0.379,0.115-0.569c0.049-0.274,0.087-0.551,0.126-0.827
		c0.025-0.181,0.057-0.36,0.078-0.542c0.036-0.308,0.06-0.618,0.085-0.929c0.012-0.152,0.03-0.304,0.039-0.457
		c0.027-0.464,0.043-0.93,0.043-1.397c0-0.469-0.016-0.937-0.043-1.401c-0.01-0.154-0.027-0.307-0.04-0.461
		c-0.024-0.31-0.048-0.619-0.085-0.927c-0.021-0.185-0.053-0.366-0.079-0.549c-0.039-0.275-0.077-0.551-0.126-0.823
		c-0.034-0.193-0.077-0.385-0.117-0.578c-0.053-0.259-0.104-0.518-0.166-0.774c-0.047-0.198-0.103-0.394-0.154-0.591
		c-0.066-0.247-0.132-0.494-0.206-0.738c-0.06-0.198-0.126-0.395-0.191-0.592c-0.079-0.239-0.158-0.478-0.245-0.713
		c-0.071-0.196-0.148-0.39-0.225-0.584c-0.093-0.232-0.186-0.464-0.285-0.692c-0.083-0.193-0.171-0.383-0.26-0.573
		c-0.104-0.226-0.211-0.449-0.322-0.671c-0.095-0.188-0.192-0.374-0.292-0.56c-0.117-0.219-0.237-0.436-0.361-0.65
		c-0.105-0.182-0.212-0.362-0.323-0.542c-0.129-0.212-0.264-0.421-0.399-0.63c-0.115-0.175-0.231-0.349-0.351-0.521
		c-0.144-0.206-0.291-0.408-0.441-0.61c-0.124-0.167-0.248-0.334-0.377-0.498c-0.156-0.199-0.318-0.394-0.48-0.588
		c-0.133-0.159-0.266-0.318-0.402-0.473c-0.17-0.193-0.346-0.381-0.523-0.568c-0.14-0.148-0.278-0.299-0.422-0.444
		c-0.187-0.188-0.38-0.369-0.572-0.551c-0.145-0.136-0.285-0.273-0.434-0.406c-0.205-0.184-0.417-0.36-0.629-0.537
		c-0.146-0.122-0.289-0.247-0.438-0.366C10.608,8.025,10.582,8,10.554,7.979c4.222-3.646,9.501-5.734,15.073-5.957v49.207H25.625z
		 M51.25,26.625c0,6.147-2.258,11.98-6.373,16.521c-0.078-0.056-0.16-0.109-0.237-0.166c-0.171-0.123-0.337-0.249-0.503-0.377
		c-0.19-0.146-0.379-0.295-0.564-0.446c-0.162-0.134-0.322-0.27-0.48-0.407c-0.178-0.156-0.354-0.314-0.527-0.475
		c-0.154-0.144-0.305-0.288-0.454-0.435c-0.168-0.165-0.332-0.333-0.493-0.503c-0.145-0.151-0.287-0.304-0.427-0.459
		c-0.155-0.174-0.308-0.35-0.458-0.527c-0.135-0.16-0.268-0.321-0.397-0.484c-0.145-0.182-0.284-0.367-0.423-0.553
		c-0.124-0.167-0.247-0.335-0.366-0.505c-0.133-0.19-0.261-0.384-0.388-0.577c-0.113-0.174-0.227-0.348-0.335-0.524
		c-0.121-0.198-0.236-0.399-0.351-0.601c-0.103-0.18-0.205-0.358-0.302-0.541c-0.11-0.206-0.213-0.416-0.315-0.625
		c-0.091-0.184-0.182-0.367-0.268-0.553c-0.098-0.215-0.188-0.434-0.279-0.651c-0.077-0.187-0.158-0.372-0.23-0.562
		c-0.086-0.224-0.163-0.45-0.242-0.677c-0.065-0.189-0.134-0.377-0.194-0.568c-0.073-0.232-0.138-0.469-0.203-0.704
		c-0.054-0.189-0.11-0.377-0.158-0.568c-0.061-0.244-0.111-0.491-0.164-0.737c-0.04-0.188-0.085-0.373-0.12-0.562
		c-0.048-0.26-0.084-0.523-0.123-0.786c-0.027-0.178-0.06-0.354-0.082-0.534c-0.036-0.294-0.059-0.591-0.083-0.888
		c-0.013-0.15-0.032-0.3-0.041-0.451c-0.028-0.449-0.042-0.901-0.042-1.354c0-0.416,0.012-0.829,0.035-1.24
		c0.008-0.137,0.023-0.272,0.033-0.409c0.021-0.273,0.039-0.548,0.07-0.819c0.018-0.159,0.044-0.317,0.064-0.477
		c0.033-0.245,0.064-0.491,0.105-0.734c0.029-0.17,0.065-0.337,0.098-0.506c0.045-0.229,0.088-0.459,0.14-0.687
		c0.039-0.174,0.086-0.345,0.13-0.518c0.056-0.219,0.109-0.438,0.172-0.655c0.05-0.174,0.106-0.346,0.16-0.518
		c0.066-0.212,0.133-0.424,0.205-0.633c0.061-0.174,0.128-0.346,0.192-0.518c0.077-0.203,0.153-0.406,0.236-0.607
		c0.071-0.172,0.147-0.341,0.223-0.511c0.087-0.196,0.175-0.394,0.268-0.588c0.081-0.169,0.167-0.336,0.253-0.503
		c0.097-0.189,0.195-0.379,0.298-0.565c0.091-0.165,0.187-0.329,0.281-0.491c0.107-0.185,0.217-0.367,0.33-0.548
		c0.101-0.161,0.204-0.319,0.309-0.478c0.117-0.177,0.237-0.353,0.359-0.526c0.11-0.156,0.224-0.311,0.339-0.465
		c0.126-0.169,0.256-0.337,0.387-0.503c0.121-0.151,0.242-0.301,0.367-0.45c0.136-0.162,0.275-0.322,0.416-0.481
		c0.129-0.145,0.26-0.288,0.393-0.43c0.146-0.156,0.296-0.311,0.447-0.462c0.137-0.138,0.275-0.274,0.416-0.409
		c0.156-0.149,0.316-0.295,0.479-0.44c0.145-0.13,0.289-0.261,0.438-0.387c0.057-0.048,0.115-0.095,0.173-0.142
		C48.413,13.299,51.25,19.804,51.25,26.625z M27.625,51.23V2.02C32.824,2.231,37.82,4.086,41.9,7.318
		c-0.021,0.018-0.04,0.036-0.061,0.054c-0.125,0.108-0.243,0.223-0.366,0.332c-0.209,0.188-0.419,0.377-0.62,0.571
		c-0.131,0.126-0.254,0.257-0.382,0.386c-0.185,0.186-0.369,0.371-0.546,0.563c-0.129,0.139-0.252,0.282-0.377,0.423
		c-0.167,0.189-0.334,0.378-0.494,0.571c-0.123,0.148-0.24,0.3-0.359,0.451c-0.152,0.193-0.305,0.388-0.451,0.585
		c-0.115,0.156-0.227,0.315-0.338,0.474c-0.14,0.199-0.277,0.399-0.411,0.603c-0.107,0.163-0.211,0.328-0.313,0.494
		c-0.128,0.205-0.253,0.411-0.373,0.619c-0.099,0.17-0.193,0.341-0.287,0.512c-0.115,0.211-0.228,0.424-0.336,0.638
		c-0.089,0.175-0.176,0.351-0.26,0.527c-0.104,0.216-0.203,0.435-0.299,0.654c-0.079,0.179-0.156,0.358-0.23,0.54
		c-0.092,0.223-0.178,0.447-0.262,0.673c-0.068,0.183-0.138,0.366-0.201,0.551c-0.08,0.229-0.152,0.46-0.225,0.692
		c-0.059,0.186-0.117,0.37-0.17,0.557c-0.067,0.236-0.128,0.477-0.188,0.716c-0.047,0.186-0.096,0.37-0.139,0.558
		c-0.055,0.248-0.103,0.498-0.15,0.748c-0.035,0.182-0.073,0.361-0.104,0.545c-0.045,0.265-0.079,0.531-0.115,0.798
		c-0.022,0.173-0.05,0.343-0.069,0.517c-0.033,0.296-0.055,0.595-0.076,0.894c-0.011,0.146-0.027,0.29-0.036,0.437
		c-0.024,0.446-0.037,0.895-0.037,1.346c0,0.492,0.016,0.982,0.045,1.47c0.011,0.162,0.031,0.322,0.044,0.483
		c0.026,0.324,0.052,0.648,0.091,0.97c0.023,0.191,0.058,0.381,0.086,0.571c0.043,0.288,0.083,0.576,0.136,0.861
		c0.037,0.201,0.084,0.398,0.126,0.598c0.058,0.271,0.113,0.543,0.181,0.813c0.051,0.203,0.109,0.403,0.165,0.604
		c0.072,0.261,0.144,0.521,0.225,0.777c0.063,0.203,0.135,0.403,0.204,0.604c0.086,0.25,0.173,0.5,0.267,0.746
		c0.077,0.202,0.16,0.401,0.243,0.601c0.1,0.241,0.2,0.48,0.308,0.718c0.09,0.197,0.185,0.393,0.279,0.588
		c0.113,0.233,0.229,0.465,0.35,0.694c0.102,0.192,0.207,0.382,0.314,0.571c0.127,0.226,0.257,0.449,0.392,0.671
		c0.113,0.187,0.229,0.37,0.348,0.554c0.14,0.217,0.284,0.432,0.432,0.644c0.125,0.18,0.251,0.358,0.382,0.535
		c0.152,0.208,0.311,0.413,0.471,0.617c0.136,0.172,0.272,0.343,0.412,0.512c0.167,0.2,0.34,0.396,0.513,0.591
		c0.146,0.163,0.292,0.326,0.442,0.486c0.18,0.191,0.366,0.378,0.553,0.563c0.155,0.153,0.309,0.308,0.469,0.458
		c0.194,0.183,0.396,0.359,0.597,0.536c0.163,0.144,0.324,0.289,0.491,0.428c0.209,0.174,0.426,0.341,0.643,0.508
		c0.17,0.132,0.336,0.267,0.511,0.394c0.037,0.028,0.072,0.059,0.11,0.086C39.113,48.669,33.567,50.995,27.625,51.23z"/>
</g>
<g>
</g>
<g>
</g>
<g>
</g>
<g>
</g>
<g>
</g>
<g>
</g>
<g>
</g>
<g>
</g>
<g>
</g>
<g>
</g>
<g>
</g>
<g>
</g>
<g>
</g>
<g>
</g>
<g>
</g>
</svg>
