<?xml version="1.0" encoding="iso-8859-1"?>
<!-- Generator: Adobe Illustrator 18.1.1, SVG Export Plug-In . SVG Version: 6.00 Build 0)  -->
<svg version="1.1" id="Capa_1" xmlns="http://www.w3.org/2000/svg" xmlns:xlink="http://www.w3.org/1999/xlink" x="0px" y="0px"
	 viewBox="0 0 210.4 210.4" style="enable-background:new 0 0 210.4 210.4;" xml:space="preserve">
<g>
	<path style="fill:#010002;" d="M210.394,53.575c-0.279-23.86-9.13-39.206-10.912-42.048l-0.204-0.322
		c-0.115-0.175-0.186-0.283-0.229-0.358l-1.414-1.374l-0.304,0.304c-3.833-1.8-19.44-8.396-41.822-8.396
		c-25.313,0-64.129,8.639-105.265,49.775C9.251,92.152,0.297,130.216,0.007,154.928c-0.308,27.045,9.323,44.32,9.42,44.485
		l0.229,0.415l0.415,0.222c0.165,0.086,16.824,8.969,42.968,8.969c25.295,0,64.079-8.629,105.197-49.717l0.272-0.136v-0.132
		l0.247-0.251l0,0C201.933,115.411,210.68,77.647,210.394,53.575z M142.549,95.004l-4.019,4.026l-14.706-14.698l-0.451-0.437
		L109.03,69.548l4.033-4.03l14.33,14.323l-0.007,0.011L142.549,95.004z M98.558,80.019l29.504,29.475l-4.037,4.044L109.32,98.837
		L94.532,84.046L98.558,80.019z M112.244,123.914l-4.037,4.033L94.21,113.954l-0.311-0.308L78.717,98.454l4.019-4.03l15.124,15.11
		v0.011L112.244,123.914z M67.243,109.935l29.475,29.479l-4.033,4.041l-15.106-15.11l-14.383-14.38L67.243,109.935z M129.633,77.46
		L113.06,60.894l-8.657,8.657l16.566,16.577l-5.844,5.83L98.558,75.395l-8.664,8.65l16.574,16.577l-6.449,6.453L82.732,89.804
		l-8.647,8.65l17.272,17.282l-6.857,6.846l-17.257-17.268l-8.672,8.65l17.268,17.272l-64.541,64.555
		c-2.67-5.862-9.312-23.216-7.526-47.549c2.394-32.918,18.814-64.806,48.794-94.786C92.911,13.116,130.836,4.642,155.548,4.642
		c20.017,0,34.31,5.393,39.31,7.598L129.633,77.46z M78.227,133.623l14.459,14.459l8.661-8.668l-14.459-14.448l6.861-6.854
		l14.455,14.459l8.657-8.657l-14.466-14.459l6.453-6.456l15.171,15.164l8.661-8.668l-15.164-15.153l5.841-5.837l15.167,15.164
		L147.166,95l-15.164-15.142l65.407-65.4c2.691,4.778,9.505,18.839,9.72,39.281c0.243,23.484-8.417,60.407-51.009,103.049
		l-0.036-0.011l-0.097,0.147c-40.348,40.352-78.273,48.819-102.981,48.819c-20.009,0-34.3-5.386-39.299-7.591L78.227,133.623z"/>
</g>
<g>
</g>
<g>
</g>
<g>
</g>
<g>
</g>
<g>
</g>
<g>
</g>
<g>
</g>
<g>
</g>
<g>
</g>
<g>
</g>
<g>
</g>
<g>
</g>
<g>
</g>
<g>
</g>
<g>
</g>
</svg>
